<svg width="21" height="20" viewBox="0 0 21 20" fill="none" xmlns="http://www.w3.org/2000/svg">
<path d="M11.5 2V0C16.16 0.5 19.83 4.19 20.35 8.85C20.9501 14.34 17 19.28 11.5 19.88V17.88C15.14 17.43 18 14.56 18.46 10.92C18.5896 9.87718 18.5123 8.81904 18.2325 7.80614C17.9527 6.79323 17.4759 5.84542 16.8295 5.01694C16.183 4.18846 15.3796 3.49556 14.4651 2.97788C13.5506 2.46021 12.5431 2.12791 11.5 2ZM4.17005 2.2C5.68589 0.94875 7.54296 0.182229 9.50005 0V2.06C8.07005 2.26 6.72005 2.84 5.60005 3.74L4.17005 2.2ZM0.550049 9C0.735142 7.04181 1.50519 5.18463 2.76005 3.67L4.19005 5.1C3.30331 6.22927 2.73683 7.57638 2.55005 9H0.550049ZM2.77005 16.33C1.52773 14.8078 0.759322 12.9546 0.560049 11H2.56005C2.74005 12.42 3.31005 13.77 4.19005 14.9L2.77005 16.33ZM4.17005 17.74L5.56005 16.37H5.60005C6.73005 17.25 8.08005 17.82 9.50005 18V20C7.54005 19.79 5.68005 19 4.17005 17.74ZM10.5 15L12.06 11.58L15.5 10L12.06 8.44L10.5 5L8.93005 8.44L5.50005 10L8.93005 11.58L10.5 15Z" fill="url(#paint0_linear_1772_282)"/>
<defs>
<linearGradient id="paint0_linear_1772_282" x1="0.550049" y1="10" x2="20.4103" y2="10" gradientUnits="userSpaceOnUse">
<stop stop-color="#9034EA"/>
<stop offset="1" stop-color="#5146E5"/>
</linearGradient>
</defs>
</svg>
