<svg xmlns="http://www.w3.org/2000/svg" width="175" height="313" viewBox="0 0 175 313" fill="none">
  <path fill-rule="evenodd" clip-rule="evenodd" d="M4.31605 79.7648C-10.8428 82.5815 -24.8367 89.8277 -35.8956 100.587L-90.1693 44.803C-68.0514 23.284 -40.0639 8.79149 -9.74595 3.15822C20.5719 -2.47509 51.8581 1.00434 80.1568 13.1554C108.455 25.307 132.495 45.5853 149.236 71.4255C165.978 97.2656 174.668 127.508 174.209 158.327C173.75 189.147 164.161 219.159 146.657 244.57C129.152 269.98 104.517 289.648 75.8669 301.084C47.2167 312.521 15.8387 315.214 -14.3 308.822C-44.4388 302.429 -71.9841 287.24 -93.4526 265.174L-37.5372 210.773C-26.803 221.806 -13.0303 229.4 2.03901 232.596C17.1083 235.793 32.7974 234.446 47.1228 228.728C61.4476 223.01 73.7652 213.176 82.5172 200.47C91.2698 187.765 96.0638 172.759 96.2939 157.349C96.5229 141.939 92.1778 126.819 83.807 113.899C75.4368 100.978 63.4168 90.839 49.2677 84.7637C35.1181 78.6879 19.4749 76.9481 4.31605 79.7648Z" fill="url(#paint0_linear_1657_342)"/>
  <defs>
    <linearGradient id="paint0_linear_1657_342" x1="-93.4526" y1="265.174" x2="130.209" y2="47.5689" gradientUnits="userSpaceOnUse">
      <stop stop-color="#9034EA"/>
      <stop offset="1" stop-color="#5146E5"/>
    </linearGradient>
  </defs>
</svg>