<svg width="18" height="18" viewBox="0 0 18 18" fill="none" xmlns="http://www.w3.org/2000/svg">
<path fill-rule="evenodd" clip-rule="evenodd" d="M16.6682 2.03181H10.5902V0.599609L0.599609 2.14161V15.6578L10.5902 17.3786V15.2558H16.6682C16.8524 15.2655 17.0328 15.2016 17.17 15.0783C17.3071 14.955 17.3897 14.7824 17.3996 14.5982V2.68881C17.3895 2.50477 17.3069 2.33225 17.1698 2.20908C17.0326 2.08591 16.8523 2.02216 16.6682 2.03181ZM16.7642 14.7074H10.5698L10.5596 13.574H12.0518V12.254H10.5482L10.541 11.474H12.0518V10.154H10.5296L10.5224 9.37401H12.0518V8.05401H10.5176V7.27401H12.0518V5.95401H10.5176V5.17401H12.0518V3.85401H10.5176V2.65401H16.7642V14.7074Z" fill="#20744A"/>
<path d="M12.8926 3.85156H15.4864V5.17156H12.8926V3.85156ZM12.8926 5.95216H15.4864V7.27216H12.8926V5.95216ZM12.8926 8.05276H15.4864V9.37276H12.8926V8.05276ZM12.8926 10.1534H15.4864V11.4734H12.8926V10.1534ZM12.8926 12.254H15.4864V13.574H12.8926V12.254Z" fill="#20744A"/>
<path fill-rule="evenodd" clip-rule="evenodd" d="M3.20806 5.79213L4.49566 5.71833L5.30506 7.94373L6.26146 5.62653L7.54906 5.55273L5.98546 8.71233L7.54906 11.8797L6.18766 11.7879L5.26846 9.37353L4.34866 11.6961L3.09766 11.5857L4.55086 8.78794L3.20806 5.79213Z" fill="white"/>
</svg>
