<svg xmlns="http://www.w3.org/2000/svg" width="40" height="40" viewBox="0 0 40 40" fill="none">
  <g clip-path="url(#clip0_1661_444)">
    <path d="M6.66675 17.3333V16H5.33341V17.3333H6.66675ZM17.3334 17.3333V16H16.0001V17.3333H17.3334ZM17.3334 28H16.0001V29.3333H17.3334V28ZM36.0001 9.33333H37.3334V8.78133L36.9441 8.38933L36.0001 9.33333ZM28.0001 1.33333L28.9441 0.389333L28.5521 0H28.0001V1.33333ZM6.66675 18.6667H9.33342V16H6.66675V18.6667ZM8.00008 29.3333V22.6667H5.33341V29.3333H8.00008ZM8.00008 22.6667V17.3333H5.33341V22.6667H8.00008ZM9.33342 21.3333H6.66675V24H9.33342V21.3333ZM10.6667 20C10.6667 20.3536 10.5263 20.6928 10.2762 20.9428C10.0262 21.1929 9.68704 21.3333 9.33342 21.3333V24C10.3943 24 11.4117 23.5786 12.1618 22.8284C12.912 22.0783 13.3334 21.0609 13.3334 20H10.6667ZM9.33342 18.6667C9.68704 18.6667 10.0262 18.8071 10.2762 19.0572C10.5263 19.3072 10.6667 19.6464 10.6667 20H13.3334C13.3334 18.9391 12.912 17.9217 12.1618 17.1716C11.4117 16.4214 10.3943 16 9.33342 16V18.6667ZM16.0001 17.3333V28H18.6667V17.3333H16.0001ZM17.3334 29.3333H20.0001V26.6667H17.3334V29.3333ZM24.0001 25.3333V20H21.3334V25.3333H24.0001ZM20.0001 16H17.3334V18.6667H20.0001V16ZM24.0001 20C24.0001 18.9391 23.5787 17.9217 22.8285 17.1716C22.0784 16.4214 21.0609 16 20.0001 16V18.6667C20.3537 18.6667 20.6928 18.8071 20.9429 19.0572C21.1929 19.3072 21.3334 19.6464 21.3334 20H24.0001ZM20.0001 29.3333C21.0609 29.3333 22.0784 28.9119 22.8285 28.1618C23.5787 27.4116 24.0001 26.3942 24.0001 25.3333H21.3334C21.3334 25.687 21.1929 26.0261 20.9429 26.2761C20.6928 26.5262 20.3537 26.6667 20.0001 26.6667V29.3333ZM26.6667 16V29.3333H29.3334V16H26.6667ZM28.0001 18.6667H34.6667V16H28.0001V18.6667ZM28.0001 24H32.0001V21.3333H28.0001V24ZM5.33341 13.3333V4H2.66675V13.3333H5.33341ZM34.6667 9.33333V13.3333H37.3334V9.33333H34.6667ZM6.66675 2.66667H28.0001V0H6.66675V2.66667ZM27.0561 2.27733L35.0561 10.2773L36.9441 8.38933L28.9441 0.389333L27.0561 2.27733ZM5.33341 4C5.33341 3.64638 5.47389 3.30724 5.72394 3.05719C5.97399 2.80714 6.31313 2.66667 6.66675 2.66667V0C5.60588 0 4.58847 0.421427 3.83832 1.17157C3.08818 1.92172 2.66675 2.93913 2.66675 4H5.33341ZM2.66675 32V36H5.33341V32H2.66675ZM6.66675 40H33.3334V37.3333H6.66675V40ZM37.3334 36V32H34.6667V36H37.3334ZM33.3334 40C34.3943 40 35.4117 39.5786 36.1618 38.8284C36.912 38.0783 37.3334 37.0609 37.3334 36H34.6667C34.6667 36.3536 34.5263 36.6928 34.2762 36.9428C34.0262 37.1929 33.687 37.3333 33.3334 37.3333V40ZM2.66675 36C2.66675 37.0609 3.08818 38.0783 3.83832 38.8284C4.58847 39.5786 5.60588 40 6.66675 40V37.3333C6.31313 37.3333 5.97399 37.1929 5.72394 36.9428C5.47389 36.6928 5.33341 36.3536 5.33341 36H2.66675Z" fill="white"/>
  </g>
  <defs>
    <clipPath id="clip0_1661_444">
      <rect width="40" height="40" fill="white"/>
    </clipPath>
  </defs>
</svg>