<svg xmlns="http://www.w3.org/2000/svg" width="24" height="24" viewBox="0 0 24 24" fill="none">
  <path d="M4.116 18C3.67133 18 3.291 17.8417 2.975 17.525C2.659 17.2083 2.50067 16.8283 2.5 16.385V7.615C2.5 7.171 2.65833 6.791 2.975 6.475C3.29167 6.159 3.67167 6.00067 4.115 6H12.885C13.329 6 13.709 6.15833 14.025 6.475C14.341 6.79167 14.4993 7.17167 14.5 7.615V16.385C14.5 16.829 14.3417 17.209 14.025 17.525C13.7083 17.841 13.3283 17.9993 12.885 18H4.116ZM17.317 11C17.079 11 16.8833 10.9233 16.73 10.77C16.5767 10.6167 16.5 10.421 16.5 10.183V6.817C16.5 6.579 16.5767 6.38333 16.73 6.23C16.8833 6.07667 17.079 6 17.317 6H20.683C20.921 6 21.1167 6.07667 21.27 6.23C21.4233 6.38333 21.5 6.579 21.5 6.817V10.183C21.5 10.4217 21.4233 10.6173 21.27 10.77C21.1167 10.9227 20.921 10.9993 20.683 11H17.317ZM17.5 10H20.5V7H17.5V10ZM4.116 17H12.885C13.0643 17 13.2117 16.9423 13.327 16.827C13.4423 16.7117 13.5 16.5643 13.5 16.385V7.615C13.5 7.43567 13.4423 7.28833 13.327 7.173C13.2117 7.05767 13.0643 7 12.885 7H4.115C3.93567 7 3.78833 7.05767 3.673 7.173C3.55767 7.28833 3.5 7.436 3.5 7.616V16.385C3.5 16.5643 3.55767 16.7117 3.673 16.827C3.78833 16.9423 3.936 17 4.116 17ZM5.5 14.904H11.5C11.6553 14.904 11.7717 14.8317 11.849 14.687C11.927 14.5417 11.9183 14.3983 11.823 14.257L10.198 12.083C10.1113 11.975 10.0037 11.921 9.875 11.921C9.74633 11.921 9.63867 11.975 9.552 12.083L8 14.153L6.948 12.758C6.86133 12.65 6.75367 12.596 6.625 12.596C6.49633 12.596 6.38867 12.65 6.302 12.758L5.177 14.258C5.08167 14.3987 5.073 14.5417 5.151 14.687C5.22833 14.8317 5.34467 14.904 5.5 14.904ZM17.317 18C17.079 18 16.8833 17.9233 16.73 17.77C16.5767 17.6167 16.5 17.421 16.5 17.183V13.817C16.5 13.579 16.5767 13.3833 16.73 13.23C16.8833 13.0767 17.079 13 17.317 13H20.683C20.921 13 21.1167 13.0767 21.27 13.23C21.4233 13.3833 21.5 13.579 21.5 13.817V17.183C21.5 17.4217 21.4233 17.6173 21.27 17.77C21.1167 17.9227 20.921 17.9993 20.683 18H17.317ZM17.5 17H20.5V14H17.5V17Z" fill="white"/>
</svg>