<svg xmlns="http://www.w3.org/2000/svg" width="24" height="24" viewBox="0 0 24 24" fill="none">
  <path d="M7.654 9.116V8.116H20V9.116H7.654ZM7.654 12.5V11.5H20V12.5H7.654ZM7.654 15.885V14.885H20V15.885H7.654ZM4.616 9.23C4.44133 9.23 4.295 9.169 4.177 9.047C4.059 8.92633 4 8.776 4 8.596C4 8.42733 4.059 8.286 4.177 8.172C4.295 8.05733 4.44133 8 4.616 8C4.79 8 4.936 8.05733 5.054 8.172C5.172 8.28533 5.231 8.42667 5.231 8.596C5.231 8.776 5.172 8.92667 5.054 9.048C4.936 9.17 4.78967 9.231 4.615 9.231M4.615 12.596C4.441 12.596 4.295 12.539 4.177 12.425C4.059 12.311 4 12.1693 4 12C4 11.8067 4.059 11.6527 4.177 11.538C4.295 11.4233 4.44133 11.3657 4.616 11.365C4.79067 11.3643 4.93667 11.4217 5.054 11.537C5.17133 11.6523 5.23033 11.8067 5.231 12C5.231 12.1687 5.172 12.3103 5.054 12.425C4.936 12.5397 4.78967 12.5967 4.615 12.596ZM4.615 16C4.441 16 4.295 15.9393 4.177 15.818C4.059 15.696 4 15.5453 4 15.366C4 15.1967 4.059 15.055 4.177 14.941C4.295 14.8263 4.44133 14.769 4.616 14.769C4.79 14.769 4.936 14.8263 5.054 14.941C5.172 15.0557 5.231 15.1973 5.231 15.366C5.231 15.5453 5.172 15.696 5.054 15.818C4.936 15.9393 4.78967 16 4.615 16Z" fill="black"/>
</svg>