<svg width="16" height="18" viewBox="0 0 16 18" fill="none" xmlns="http://www.w3.org/2000/svg">
<path d="M15.0427 6.4386H14.5859L14.6099 4.7376C14.6073 4.63813 14.5694 4.54292 14.5032 4.4694L10.5781 0.1206C10.5463 0.084402 10.5077 0.0550641 10.4645 0.034342C10.4212 0.01362 10.3743 0.00193964 10.3265 0L2.11367 0C1.92953 0.00299345 1.75372 0.0782111 1.62324 0.209819C1.49277 0.341427 1.41781 0.519159 1.41415 0.7056V6.4386H0.956401C0.703082 6.4386 0.458651 6.5448 0.280884 6.7338C0.0995065 6.92589 -0.00118454 7.18174 1.05172e-05 7.4475V12.6945C1.05172e-05 13.2507 0.428431 13.7025 0.956401 13.7025H1.41415V17.2935C1.4176 17.4804 1.4927 17.6586 1.62358 17.7905C1.75445 17.9223 1.93084 17.9975 2.11545 18H13.9175C14.2863 18 14.6107 17.6832 14.6107 17.2944V13.7034H15.0436C15.5716 13.7034 16 13.2507 16 12.6936V7.4466C16 7.1802 15.8996 6.9228 15.72 6.7338C15.633 6.64081 15.5283 6.5667 15.4122 6.51595C15.2961 6.46521 15.171 6.43889 15.0445 6.4386M2.62209 1.2402H8.80485V5.3595C8.80451 5.45225 8.83953 5.54156 8.90262 5.6088C8.93323 5.64138 8.97003 5.66735 9.01082 5.68514C9.05161 5.70293 9.09553 5.71217 9.13994 5.7123H13.3699V6.4386H2.62209V1.2402ZM2.62209 16.7598V13.7025H13.3699V16.7598H2.62209ZM10.0359 1.368L10.3781 1.7586L12.6713 4.3263L12.7984 4.482H10.4545C10.2768 4.482 10.1648 4.452 10.1186 4.392C10.0711 4.3332 10.0436 4.2393 10.0359 4.1103V1.368ZM1.77769 12.8088V7.4088H3.48248C4.12837 7.4088 4.54909 7.4358 4.74463 7.4898C5.04684 7.5708 5.29956 7.7472 5.50281 8.019C5.70606 8.2896 5.80768 8.64 5.80768 9.0702C5.80768 9.4014 5.74902 9.6804 5.63169 9.9072C5.51437 10.1322 5.36534 10.3092 5.18461 10.4382C5.01992 10.5605 4.83245 10.6478 4.63353 10.6947C4.37991 10.7463 4.01282 10.7721 3.53226 10.7721H2.83985V12.8088H1.77769ZM2.83985 8.3223V9.855H3.42115C3.84009 9.855 4.12008 9.8268 4.2611 9.7704C4.3974 9.71774 4.51411 9.62341 4.59503 9.50051C4.67594 9.37761 4.71705 9.23224 4.71263 9.0846C4.71921 8.90678 4.65885 8.73307 4.54376 8.5986C4.43292 8.47155 4.28226 8.38702 4.11711 8.3592C3.9909 8.3352 3.7361 8.3232 3.35271 8.3232L2.83985 8.3223ZM6.43076 7.4088H8.37198C8.80989 7.4088 9.14379 7.4433 9.3737 7.5123C9.68184 7.6053 9.94612 7.7709 10.1665 8.0091C10.3864 8.2479 10.5538 8.5395 10.6687 8.8839C10.7843 9.2295 10.8418 9.6549 10.8412 10.1601C10.8412 10.6047 10.7873 10.9878 10.6794 11.3094C10.5473 11.7024 10.3594 12.0204 10.1159 12.2634C9.93219 12.4482 9.68332 12.5922 9.36926 12.6954C9.1352 12.771 8.82203 12.8088 8.42976 12.8088H6.43076V7.4088ZM7.49292 8.3223V11.8989H8.28577C8.58264 11.8989 8.79685 11.8818 8.9284 11.8476C9.10083 11.8032 9.24364 11.7282 9.35682 11.6226C9.47118 11.517 9.56392 11.3433 9.63502 11.1015C9.70672 10.8597 9.74257 10.53 9.74257 10.1124C9.74257 9.6948 9.70702 9.3744 9.63591 9.1512C9.57868 8.95461 9.47495 8.77512 9.33371 8.6283C9.19658 8.49857 9.02631 8.41034 8.84218 8.3736C8.69404 8.3394 8.40369 8.3223 7.97112 8.3223H7.49292ZM11.5043 12.8088V7.4088H15.1103V8.3223H12.5664V9.6003H14.7618V10.5138H12.5664V12.8088H11.5043Z" fill="#E94E51"/>
</svg>
