<svg width="40" height="40" viewBox="0 0 40 40" fill="none" xmlns="http://www.w3.org/2000/svg">
<g clip-path="url(#clip0_1661_386)">
<path d="M37.2721 34.4142C38.7762 34.4142 40 33.1905 40 31.6863V3.90625C40 1.75234 38.2477 0 36.0938 0H3.90625C1.75234 0 0 1.75234 0 3.90625V31.6863C0 33.1905 1.22375 34.4142 2.72789 34.4142H3.59375V38.4375H0.78125C0.349766 38.4375 0 38.7873 0 39.2188C0 39.6502 0.349766 40 0.78125 40H39.2188C39.6502 40 40 39.6502 40 39.2188C40 38.7873 39.6502 38.4375 39.2188 38.4375H36.4062V34.4142H37.2721ZM1.5625 3.90625C1.5625 2.61391 2.61391 1.5625 3.90625 1.5625H36.0938C37.3861 1.5625 38.4375 2.61391 38.4375 3.90625V5.625H1.64094C1.61445 5.625 1.58828 5.62641 1.5625 5.62898V3.90625ZM8.59375 38.4375H5.15625V31.4062H8.59375V38.4375ZM17.3438 38.4375H13.9062V22.7681H17.3438V38.4375ZM26.0938 38.4375H22.6562V29.375H26.0938V38.4375ZM35.625 20.0391H30.625C30.1935 20.0391 29.8438 20.3889 29.8438 20.8203V24.7655C29.8438 25.197 30.1935 25.5468 30.625 25.5468C31.0565 25.5468 31.4062 25.197 31.4062 24.7655V21.6016H34.8438V38.4375H31.4062V30.0195C31.4062 29.5881 31.0565 29.2383 30.625 29.2383C30.1935 29.2383 29.8438 29.5881 29.8438 30.0195V38.4375H27.6562V28.5938C27.6562 28.1623 27.3065 27.8125 26.875 27.8125H21.875C21.4435 27.8125 21.0938 28.1623 21.0938 28.5938V38.4375H18.9062V21.9869C18.9062 21.5555 18.5565 21.2056 18.125 21.2056H13.125C12.6935 21.2056 12.3438 21.5555 12.3438 21.9869V38.4375H10.1562V30.625C10.1562 30.1936 9.80648 29.8438 9.375 29.8438H4.375C3.94352 29.8438 3.59375 30.1936 3.59375 30.625V32.8517H2.72789C2.08523 32.8517 1.5625 32.3289 1.5625 31.6863V7.18352C1.58828 7.18609 1.61445 7.1875 1.64094 7.1875H38.4375V31.6863C38.4375 32.3289 37.9147 32.8517 37.2721 32.8517H36.4062V20.8203C36.4062 20.3889 36.0565 20.0391 35.625 20.0391Z" fill="white"/>
<path d="M35 2.8125H17.3488C16.9173 2.8125 16.5676 3.16234 16.5676 3.59375C16.5676 4.02516 16.9173 4.375 17.3488 4.375H35C35.4315 4.375 35.7812 4.02516 35.7812 3.59375C35.7812 3.16234 35.4315 2.8125 35 2.8125ZM8.67734 3.04141C8.53203 2.89609 8.33047 2.8125 8.125 2.8125C7.91953 2.8125 7.71797 2.89602 7.57266 3.04141C7.42734 3.18672 7.34375 3.38828 7.34375 3.59375C7.34375 3.79922 7.42734 4.00078 7.57266 4.14602C7.71797 4.29141 7.91953 4.375 8.125 4.375C8.33047 4.375 8.53203 4.29141 8.67734 4.14602C8.82266 4.00078 8.90625 3.79922 8.90625 3.59375C8.90625 3.38828 8.82266 3.18672 8.67734 3.04141ZM5.55234 3.04141C5.40703 2.89609 5.20547 2.8125 5 2.8125C4.79453 2.8125 4.59297 2.89602 4.44766 3.04141C4.30234 3.18672 4.21875 3.38828 4.21875 3.59375C4.21875 3.79922 4.30234 4.00078 4.44766 4.14602C4.59297 4.29141 4.79453 4.375 5 4.375C5.20547 4.375 5.40703 4.29141 5.55234 4.14602C5.69766 4.00078 5.78125 3.79922 5.78125 3.59375C5.78125 3.38828 5.69766 3.18672 5.55234 3.04141ZM11.8023 3.04141C11.6556 2.8953 11.4571 2.81304 11.25 2.8125C11.0445 2.8125 10.843 2.89602 10.6977 3.04141C10.5523 3.18672 10.4688 3.38828 10.4688 3.59375C10.4688 3.79922 10.5523 4.00078 10.6977 4.14602C10.843 4.29141 11.0445 4.375 11.25 4.375C11.4555 4.375 11.657 4.29141 11.8023 4.14602C11.9477 4.00078 12.0312 3.79922 12.0312 3.59375C12.0312 3.38828 11.9477 3.18672 11.8023 3.04141ZM31.1773 26.9977C31.032 26.8516 30.8305 26.7688 30.625 26.7688C30.4195 26.7688 30.218 26.8516 30.0727 26.9977C29.9273 27.143 29.8438 27.3445 29.8438 27.55C29.8438 27.7555 29.9273 27.957 30.0727 28.1023C30.218 28.2476 30.4195 28.3313 30.625 28.3313C30.8305 28.3313 31.032 28.2477 31.1773 28.1023C31.3227 27.957 31.4062 27.7555 31.4062 27.55C31.4062 27.3438 31.3227 27.143 31.1773 26.9977ZM33.125 10.6202C31.5741 10.6202 30.3125 11.8819 30.3125 13.4327C30.312 14.0257 30.5 14.6034 30.8493 15.0826L25.6598 20.272C25.2445 20.0419 24.7773 19.9213 24.3024 19.9218C23.8738 19.9214 23.4508 20.0196 23.0662 20.2088L17.6475 14.7902C17.8777 14.3748 17.9982 13.9076 17.9977 13.4327C17.9977 11.8819 16.7361 10.6202 15.1852 10.6202C13.6344 10.6202 12.3727 11.8819 12.3727 13.4327C12.3727 13.9748 12.5273 14.4812 12.794 14.911L8.18047 19.5245C7.76512 19.2943 7.29798 19.1738 6.82312 19.1742C5.27227 19.1742 4.01062 20.4359 4.01062 21.9867C4.01062 23.5376 5.27227 24.7992 6.82312 24.7992C8.37398 24.7992 9.63562 23.5376 9.63562 21.9867C9.63562 21.4947 9.50828 21.032 9.28539 20.6293L13.954 15.9607C14.3373 16.1483 14.7585 16.2456 15.1852 16.2452C15.6772 16.2452 16.1398 16.1178 16.5426 15.8949L21.9082 21.2605C21.6343 21.7032 21.4894 22.2136 21.4899 22.7341C21.4899 24.285 22.7516 25.5466 24.3024 25.5466C25.8533 25.5466 27.1149 24.285 27.1149 22.7341C27.1149 22.2421 26.9876 21.7795 26.7647 21.3767L32.0932 16.0482C32.4216 16.1785 32.7717 16.2454 33.125 16.2452C34.6759 16.2452 35.9375 14.9836 35.9375 13.4327C35.9375 11.8819 34.6759 10.6202 33.125 10.6202ZM6.8232 23.2369C6.13398 23.2369 5.5732 22.6761 5.5732 21.9869C5.5732 21.2977 6.13398 20.7369 6.8232 20.7369C7.51242 20.7369 8.0732 21.2977 8.0732 21.9869C8.0732 22.6761 7.51242 23.2369 6.8232 23.2369ZM15.1853 14.6827C14.4961 14.6827 13.9353 14.122 13.9353 13.4327C13.9353 12.7435 14.4961 12.1827 15.1853 12.1827C15.8745 12.1827 16.4353 12.7435 16.4353 13.4327C16.4353 14.122 15.8745 14.6827 15.1853 14.6827ZM24.3025 23.9843C23.6133 23.9843 23.0525 23.4235 23.0525 22.7343C23.0525 22.0451 23.6133 21.4843 24.3025 21.4843C24.9917 21.4843 25.5525 22.0451 25.5525 22.7343C25.5525 23.4235 24.9917 23.9843 24.3025 23.9843ZM33.125 14.6827C32.4358 14.6827 31.875 14.122 31.875 13.4327C31.875 12.7435 32.4358 12.1827 33.125 12.1827C33.8142 12.1827 34.375 12.7435 34.375 13.4327C34.375 14.122 33.8142 14.6827 33.125 14.6827ZM11.5883 10.0743C11.4414 9.92842 11.243 9.84618 11.0359 9.84531C10.8297 9.84531 10.6281 9.92891 10.4828 10.0743C10.3375 10.2195 10.2547 10.4211 10.2547 10.6266C10.2547 10.832 10.3375 11.0336 10.4828 11.1789C10.63 11.3249 10.8287 11.4071 11.0359 11.4078C11.2414 11.4078 11.4422 11.3243 11.5883 11.1789C11.7336 11.0336 11.8172 10.832 11.8172 10.6266C11.8172 10.4211 11.7336 10.2195 11.5883 10.0743ZM8.125 9.84539H4.375C3.94352 9.84539 3.59375 10.1952 3.59375 10.6266C3.59375 11.058 3.94352 11.4079 4.375 11.4079H8.125C8.55648 11.4079 8.90625 11.058 8.90625 10.6266C8.90625 10.1952 8.55648 9.84539 8.125 9.84539ZM8.125 13.5954H4.375C3.94352 13.5954 3.59375 13.9452 3.59375 14.3766C3.59375 14.808 3.94352 15.1579 4.375 15.1579H8.125C8.55648 15.1579 8.90625 14.808 8.90625 14.3766C8.90625 13.9452 8.55648 13.5954 8.125 13.5954Z" fill="white"/>
</g>
<defs>
<clipPath id="clip0_1661_386">
<rect width="40" height="40" fill="white"/>
</clipPath>
</defs>
</svg>
