<svg width="40" height="40" viewBox="0 0 40 40" fill="none" xmlns="http://www.w3.org/2000/svg">
<path d="M14.4434 9.94531H25.5566" stroke="white" stroke-miterlimit="10" stroke-linecap="round" stroke-linejoin="round"/>
<path d="M11.25 15.6334V17.1578C11.25 17.348 11.3256 17.5304 11.4601 17.6649C11.5946 17.7994 11.777 17.875 11.9672 17.875H28.0329C28.2231 17.875 28.4055 17.7994 28.54 17.6649C28.6745 17.5304 28.7501 17.348 28.7501 17.1578V15.6334C28.7501 15.4432 28.6745 15.2608 28.54 15.1263C28.4055 14.9918 28.2231 14.9163 28.0329 14.9163H11.9672C11.777 14.9163 11.5946 14.9918 11.4601 15.1263C11.3256 15.2608 11.25 15.4432 11.25 15.6334Z" stroke="white" stroke-miterlimit="10" stroke-linecap="round" stroke-linejoin="round"/>
<path d="M11.25 22.2644V23.7888C11.25 23.9789 11.3256 24.1613 11.4601 24.2958C11.5946 24.4303 11.777 24.5059 11.9672 24.5059H28.0329C28.2231 24.5059 28.4055 24.4303 28.54 24.2958C28.6745 24.1613 28.7501 23.9789 28.7501 23.7888V22.2644C28.7501 22.0742 28.6745 21.8918 28.54 21.7573C28.4055 21.6228 28.2231 21.5472 28.0329 21.5472H11.9672C11.777 21.5472 11.5946 21.6228 11.4601 21.7573C11.3256 21.8918 11.25 22.0742 11.25 22.2644Z" stroke="white" stroke-miterlimit="10" stroke-linecap="round" stroke-linejoin="round"/>
<path d="M21.3629 28.6006H18.6371C17.851 28.6006 17.2136 29.2379 17.2136 30.0241V30.1038C17.2136 30.89 17.851 31.5273 18.6371 31.5273H21.3629C22.1491 31.5273 22.7865 30.89 22.7865 30.1038V30.0241C22.7865 29.2379 22.1491 28.6006 21.3629 28.6006Z" stroke="white" stroke-miterlimit="10" stroke-linecap="round" stroke-linejoin="round"/>
<path d="M32.2886 0.586971H7.71124C6.78546 0.586971 6.03491 1.33752 6.03491 2.26337V6.50977H33.965V2.26337C33.965 1.33752 33.2144 0.586971 32.2886 0.586971Z" stroke="white" stroke-miterlimit="10" stroke-linecap="round" stroke-linejoin="round"/>
<path d="M6.03491 11.118V34.8041C6.03491 35.7299 6.78546 36.4805 7.71131 36.4805H22.7864" stroke="white" stroke-miterlimit="10" stroke-linecap="round" stroke-linejoin="round"/>
<path d="M32.9412 36.3477C33.5429 36.0931 33.9651 35.4973 33.9651 34.803V2.26245C33.9651 1.33659 33.2145 0.586043 32.2887 0.586043H7.71131C6.78554 0.586043 6.03491 1.33659 6.03491 2.26245V8.77328" stroke="white" stroke-miterlimit="10" stroke-linecap="round" stroke-linejoin="round"/>
<path d="M9.754 2.34063C9.0876 2.34063 8.54736 2.88087 8.54736 3.54727C8.54736 4.21367 9.0876 4.75391 9.754 4.75391C10.4204 4.75391 10.9606 4.21367 10.9606 3.54727C10.9606 2.88087 10.4204 2.34063 9.754 2.34063Z" stroke="white" stroke-miterlimit="10" stroke-linecap="round" stroke-linejoin="round"/>
<path d="M14.4435 2.34063C13.777 2.34063 13.2368 2.88087 13.2368 3.54727C13.2368 4.21367 13.777 4.75391 14.4435 4.75391C15.1099 4.75391 15.6501 4.21367 15.6501 3.54727C15.6501 2.88087 15.1099 2.34063 14.4435 2.34063Z" stroke="white" stroke-miterlimit="10" stroke-linecap="round" stroke-linejoin="round"/>
<path d="M19.1329 2.34063C18.4665 2.34063 17.9263 2.88087 17.9263 3.54727C17.9263 4.21367 18.4665 4.75391 19.1329 4.75391C19.7993 4.75391 20.3395 4.21367 20.3395 3.54727C20.3395 2.88087 19.7993 2.34063 19.1329 2.34063Z" stroke="white" stroke-miterlimit="10" stroke-linecap="round" stroke-linejoin="round"/>
<path d="M31.8638 33.6299L25.7847 30.1202C25.5093 29.9612 25.165 30.1598 25.165 30.4779V37.4975C25.165 37.8154 25.5093 38.0143 25.7847 37.8552L27.3507 36.9512C27.4055 36.9195 27.466 36.899 27.5287 36.8907C27.5915 36.8824 27.6552 36.8866 27.7163 36.903C27.7774 36.9194 27.8347 36.9476 27.8849 36.9861C27.9351 37.0247 27.9772 37.0727 28.0089 37.1275L29.1955 39.1828C29.2569 39.289 29.3579 39.3666 29.4765 39.3983C29.595 39.4301 29.7213 39.4134 29.8275 39.3521L31.1388 38.595C31.1914 38.5646 31.2375 38.5242 31.2745 38.476C31.3115 38.4278 31.3386 38.3728 31.3544 38.3141C31.3701 38.2554 31.3741 38.1942 31.3662 38.134C31.3582 38.0737 31.3385 38.0156 31.3081 37.963L30.1215 35.9077C30.0576 35.7971 30.0403 35.6655 30.0734 35.5421C30.1065 35.4187 30.1872 35.3135 30.2979 35.2496L31.8638 34.3455C32.1392 34.1865 32.1392 33.7889 31.8638 33.6299Z" stroke="white" stroke-miterlimit="10" stroke-linecap="round" stroke-linejoin="round"/>
</svg>
