<svg width="20" height="20" viewBox="0 0 20 20" fill="none" xmlns="http://www.w3.org/2000/svg">
<path d="M18.7333 2.14515H11.7369V0.400391H10.4327L0.400391 2.1495V17.4116L10.3738 19.1564H11.7369V17.4182H18.284C18.6548 17.4007 19.067 17.4291 19.3854 17.2023C19.6405 16.8119 19.5751 16.3233 19.5969 15.8828V2.99134C19.6427 2.49409 19.2305 2.09498 18.7333 2.14515ZM7.67595 12.7423C7.31175 12.932 6.7665 12.7335 6.33469 12.7641C6.04463 11.3203 5.70657 9.88527 5.44707 8.43495C5.19188 9.84383 4.86038 11.2396 4.56814 12.6398C4.14942 12.618 3.72852 12.5918 3.30758 12.5634C2.94552 10.6442 2.52027 8.73806 2.1822 6.8145C2.55514 6.79707 2.93025 6.7818 3.30319 6.76872C3.52782 8.15798 3.783 9.54068 3.97932 10.9321C4.28682 9.50576 4.60084 8.07945 4.9062 6.65314C5.32058 6.62914 5.73495 6.6117 6.14933 6.58988C6.43939 8.06202 6.73598 9.53194 7.05004 10.9975C7.29649 9.48398 7.56908 7.97475 7.833 6.46339C8.26917 6.44813 8.70537 6.42413 9.13935 6.39795C8.64649 8.51126 8.21464 10.6421 7.67595 12.7423ZM18.5589 16.3824H11.7369V15.0126H17.4072V14.1402H11.7369V13.0498H17.4072V12.1774H11.7369V11.0869H17.4072V10.2146H11.7369V9.12409H17.4072V8.25176H11.7369V7.16127H17.4072V6.2889H11.7369V5.19844H17.4072V4.32608H11.7369V3.17445H18.5589V16.3824Z" fill="#2D49B0"/>
</svg>
