<svg xmlns="http://www.w3.org/2000/svg" width="175" height="300" viewBox="0 0 175 313" fill="none">
<path fill-rule="evenodd" clip-rule="evenodd" d="M4.31605 79.7643C-10.8428 82.581 -24.8367 89.8272 -35.8956 100.587L-90.1693 44.8025C-68.0514 23.2835 -40.0639 8.791 -9.74595 3.15773C20.5719 -2.47558 51.8581 1.00385 80.1568 13.1549C108.455 25.3065 132.495 45.5848 149.236 71.425C165.978 97.2652 174.668 127.507 174.209 158.327C173.75 189.146 164.161 219.159 146.657 244.569C129.152 269.98 104.517 289.647 75.8669 301.084C47.2167 312.52 15.8387 315.213 -14.3 308.821C-44.4388 302.429 -71.9841 287.239 -93.4526 265.173L-37.5372 210.772C-26.803 221.805 -13.0303 229.4 2.03901 232.596C17.1083 235.792 32.7974 234.446 47.1228 228.727C61.4476 223.009 73.7652 213.175 82.5172 200.47C91.2698 187.765 96.0638 172.759 96.2939 157.349C96.5229 141.939 92.1778 126.818 83.807 113.898C75.4368 100.978 63.4168 90.8385 49.2677 84.7632C35.1181 78.6874 19.4749 76.9476 4.31605 79.7643Z" fill="url(#paint0_linear_1544_505)"/>
<defs>
<linearGradient id="paint0_linear_1544_505" x1="-93.4526" y1="265.173" x2="130.209" y2="47.5685" gradientUnits="userSpaceOnUse">
<stop stop-color="#9034EA"/>
<stop offset="1" stop-color="#5146E5"/>
</linearGradient>
</defs>
</svg>