<svg width="375" height="1302" viewBox="0 0 375 1302" fill="none" xmlns="http://www.w3.org/2000/svg">
<path fill-rule="evenodd" clip-rule="evenodd" d="M897.249 2.2502C803.969 95.5307 693.179 169.475 571.205 219.862C449.231 270.247 318.463 296.088 186.364 295.909C54.2667 295.73 -76.5724 269.534 -198.684 218.817C-320.795 168.099 -431.786 93.8536 -525.32 0.319941L-1235.64 710.64C-1048.57 897.707 -826.591 1046.2 -582.367 1147.63C-338.144 1249.07 -76.4629 1301.46 187.73 1301.81C451.922 1302.18 713.462 1250.5 957.412 1149.72C1201.36 1048.95 1422.94 901.061 1609.5 714.5L897.249 2.2502Z" fill="url(#paint0_linear_1579_249)"/>
<defs>
<linearGradient id="paint0_linear_1579_249" x1="-525.32" y1="0.31978" x2="899.18" y2="1424.82" gradientUnits="userSpaceOnUse">
<stop stop-color="#9034EA"/>
<stop offset="1" stop-color="#5146E5"/>
</linearGradient>
</defs>
</svg>
