<svg xmlns="http://www.w3.org/2000/svg" width="1440" height="1518" viewBox="0 0 1440 1518" fill="none">
  <path fill-rule="evenodd" clip-rule="evenodd" d="M1557.25 2.91574C1448.56 111.606 1319.47 197.767 1177.34 256.477C1035.22 315.186 882.844 345.297 728.923 345.088C575.002 344.88 422.548 314.356 280.263 255.26C137.979 196.163 8.65207 109.652 -100.334 0.666697L-928 828.333C-710.028 1046.3 -451.375 1219.33 -166.805 1337.52C117.764 1455.71 422.676 1516.76 730.513 1517.17C1038.35 1517.6 1343.1 1457.37 1627.35 1339.95C1911.6 1222.53 2169.78 1050.21 2387.16 832.831L1557.25 2.91574Z" fill="url(#paint0_linear_1542_396)"/>
  <defs>
    <linearGradient id="paint0_linear_1542_396" x1="-100.333" y1="0.666488" x2="1559.5" y2="1660.5" gradientUnits="userSpaceOnUse">
      <stop stop-color="#9034EA"/>
      <stop offset="1" stop-color="#5146E5"/>
    </linearGradient>
  </defs>
</svg>